<?xml version="1.0" encoding="utf-8"?>
<!-- Generator: Adobe Illustrator 23.0.5, SVG Export Plug-In . SVG Version: 6.00 Build 0)  -->
<!DOCTYPE svg PUBLIC "-//W3C//DTD SVG 1.1//EN" "http://www.w3.org/Graphics/SVG/1.1/DTD/svg11.dtd" [
	<!ENTITY ns_extend "http://ns.adobe.com/Extensibility/1.0/">
	<!ENTITY ns_ai "http://ns.adobe.com/AdobeIllustrator/10.0/">
	<!ENTITY ns_graphs "http://ns.adobe.com/Graphs/1.0/">
	<!ENTITY ns_vars "http://ns.adobe.com/Variables/1.0/">
	<!ENTITY ns_imrep "http://ns.adobe.com/ImageReplacement/1.0/">
	<!ENTITY ns_sfw "http://ns.adobe.com/SaveForWeb/1.0/">
	<!ENTITY ns_custom "http://ns.adobe.com/GenericCustomNamespace/1.0/">
	<!ENTITY ns_adobe_xpath "http://ns.adobe.com/XPath/1.0/">
]>
<svg version="1.1" id="Слой_1" xmlns:x="&ns_extend;" xmlns:i="&ns_ai;" xmlns:graph="&ns_graphs;"
	 xmlns="http://www.w3.org/2000/svg" xmlns:xlink="http://www.w3.org/1999/xlink" x="0px" y="0px" viewBox="0 0 468 60"
	 style="enable-background:new 0 0 468 60;" xml:space="preserve">
<style type="text/css">
	.st0{fill:#337AB7;}
	.st1{fill:#FFFFFF;}
	.st2{fill:#87E1E9;}
</style>
<metadata>
	<sfw  xmlns="&ns_sfw;">
		<slices></slices>
		<sliceSourceBounds  bottomLeftOrigin="true" height="61.7" width="468" x="0" y="-60"></sliceSourceBounds>
		<optimizationSettings>
			<targetSettings  fileFormat="PNG24Format" targetSettingsID="0">
				<PNG24Format  filtered="false" interlaced="false" matteColor="#FFFFFF" noMatteColor="false" transparency="true">
					</PNG24Format>
			</targetSettings>
		</optimizationSettings>
	</sfw>
</metadata>
<g>
	<rect y="0" class="st0" width="468" height="60"/>
</g>
<g>
	<path class="st1" d="M56.57,17.24c0.13-0.13,0.24-0.28,0.33-0.46c0.09-0.18,0.14-0.37,0.14-0.57c0-0.18-0.08-0.3-0.25-0.38
		c-0.17-0.08-0.43-0.12-0.8-0.13l0.11-0.51h4.07l-0.11,0.51c-0.34,0.01-0.63,0.09-0.86,0.22c-0.23,0.13-0.48,0.33-0.73,0.58
		l-4.48,4.54l1.63,5.19c0.1,0.34,0.21,0.61,0.31,0.81c0.11,0.2,0.24,0.35,0.39,0.46c0.15,0.11,0.34,0.18,0.55,0.22
		c0.21,0.04,0.48,0.06,0.8,0.08l-0.11,0.51h-6.4l0.13-0.51c0.53-0.01,0.9-0.08,1.09-0.19c0.2-0.11,0.29-0.31,0.29-0.59
		c0-0.09-0.02-0.2-0.06-0.34l-1.03-3.5l-2.72,2.75c-0.2,0.22-0.36,0.42-0.48,0.62s-0.18,0.38-0.18,0.54c0,0.22,0.09,0.38,0.28,0.5
		c0.19,0.12,0.51,0.19,0.95,0.2l-0.11,0.51h-4.35l0.08-0.51c0.44-0.02,0.82-0.15,1.13-0.38c0.31-0.23,0.55-0.43,0.73-0.61l4.39-4.54
		l-1.75-5.51c-0.11-0.35-0.3-0.61-0.55-0.78c-0.25-0.16-0.68-0.25-1.27-0.27l0.09-0.51h6.46l-0.11,0.51c-0.15,0-0.31,0.01-0.48,0.02
		c-0.17,0.01-0.33,0.05-0.48,0.1c-0.15,0.06-0.28,0.14-0.37,0.25c-0.1,0.11-0.14,0.26-0.14,0.47c0,0.17,0.02,0.31,0.05,0.44
		c0.03,0.13,0.06,0.23,0.09,0.32l0.91,2.85L56.57,17.24z"/>
	<path class="st1" d="M60.05,25.35c0-0.8,0.16-1.57,0.48-2.31c0.32-0.74,0.75-1.4,1.29-1.97c0.54-0.57,1.18-1.03,1.91-1.37
		c0.73-0.34,1.51-0.51,2.35-0.51c0.43,0,0.84,0.06,1.23,0.18c0.39,0.12,0.73,0.31,1.02,0.56s0.52,0.58,0.69,0.98
		c0.17,0.4,0.26,0.88,0.26,1.43c0,0.73-0.17,1.47-0.51,2.21c-0.34,0.74-0.79,1.41-1.35,2c-0.56,0.59-1.2,1.07-1.93,1.43
		c-0.73,0.37-1.47,0.55-2.23,0.55c-0.38,0-0.76-0.05-1.14-0.15c-0.38-0.1-0.72-0.28-1.03-0.52c-0.3-0.25-0.55-0.57-0.74-0.98
		S60.05,25.97,60.05,25.35z M62.52,26.63c0,0.44,0.06,0.77,0.19,0.99c0.13,0.22,0.37,0.32,0.74,0.32c0.3,0,0.6-0.13,0.87-0.39
		c0.28-0.26,0.54-0.6,0.78-1.01c0.24-0.41,0.46-0.87,0.66-1.37s0.36-0.99,0.5-1.47c0.14-0.48,0.25-0.93,0.32-1.34
		s0.11-0.73,0.11-0.96c0-0.52-0.07-0.92-0.22-1.19s-0.42-0.41-0.83-0.41c-0.32,0-0.61,0.14-0.88,0.41s-0.53,0.62-0.76,1.04
		c-0.23,0.42-0.44,0.9-0.63,1.43c-0.18,0.53-0.34,1.04-0.47,1.55c-0.13,0.51-0.23,0.98-0.29,1.41
		C62.55,26.07,62.52,26.4,62.52,26.63z"/>
	<path class="st1" d="M78.16,26.09c-0.05,0.18-0.08,0.3-0.09,0.37c-0.01,0.07-0.02,0.16-0.02,0.26c0,0.08,0.03,0.13,0.1,0.17
		c0.06,0.04,0.13,0.06,0.21,0.06c0.08,0,0.16-0.04,0.26-0.11c0.09-0.08,0.2-0.17,0.3-0.29c0.11-0.12,0.22-0.25,0.32-0.4
		c0.11-0.15,0.2-0.29,0.28-0.45l0.36,0.29c-0.11,0.22-0.27,0.47-0.47,0.77c-0.2,0.3-0.43,0.58-0.71,0.85
		c-0.28,0.27-0.58,0.49-0.91,0.67c-0.33,0.18-0.68,0.28-1.06,0.28c-0.42,0-0.73-0.13-0.93-0.38c-0.2-0.25-0.3-0.57-0.3-0.95
		c0-0.33,0.05-0.74,0.16-1.23c0.11-0.49,0.29-1.18,0.54-2.08h-0.04c-0.3,0.23-0.7,0.43-1.19,0.62c-0.49,0.18-1.02,0.28-1.59,0.28
		c-0.53,0-0.97-0.12-1.31-0.35c-0.34-0.23-0.51-0.56-0.51-0.98c0-0.23,0.03-0.47,0.09-0.73c0.06-0.26,0.12-0.51,0.18-0.75
		c0.06-0.24,0.12-0.46,0.18-0.67c0.06-0.2,0.09-0.36,0.09-0.48c0-0.24-0.09-0.4-0.27-0.47c-0.18-0.07-0.43-0.1-0.76-0.1l0.1-0.51
		c0.86-0.05,1.58-0.1,2.16-0.16c0.58-0.06,1.13-0.16,1.66-0.29l0.17,0.13c-0.1,0.3-0.22,0.65-0.34,1.04
		c-0.13,0.39-0.25,0.76-0.36,1.12c-0.11,0.36-0.21,0.68-0.29,0.97c-0.08,0.29-0.12,0.48-0.12,0.6c0,0.11,0.03,0.21,0.09,0.28
		c0.06,0.08,0.13,0.13,0.21,0.17c0.08,0.04,0.17,0.07,0.27,0.09c0.09,0.02,0.17,0.03,0.24,0.03c0.19,0,0.38-0.04,0.56-0.11
		c0.18-0.08,0.37-0.23,0.56-0.46s0.38-0.54,0.57-0.94c0.19-0.4,0.37-0.92,0.55-1.57l0.34-1.22h2.64L78.16,26.09z"/>
	<path class="st1" d="M88.13,26.3c-0.28,0.3-0.56,0.59-0.85,0.85c-0.29,0.27-0.6,0.5-0.92,0.71c-0.32,0.21-0.67,0.37-1.04,0.49
		c-0.37,0.12-0.78,0.18-1.21,0.18c-0.98,0-1.71-0.29-2.19-0.88c-0.49-0.59-0.73-1.35-0.73-2.27c0-0.76,0.17-1.51,0.5-2.25
		c0.34-0.74,0.78-1.4,1.33-1.99c0.55-0.58,1.18-1.05,1.9-1.42c0.72-0.36,1.46-0.54,2.23-0.54c0.25,0,0.5,0.04,0.73,0.1
		c0.23,0.07,0.44,0.17,0.61,0.31c0.17,0.14,0.31,0.31,0.41,0.52c0.1,0.21,0.15,0.45,0.15,0.73c0,0.58-0.18,1.08-0.54,1.49
		s-0.8,0.75-1.33,1.03c-0.53,0.27-1.08,0.49-1.65,0.65c-0.58,0.16-1.08,0.28-1.51,0.35c-0.03,0.08-0.05,0.18-0.09,0.3
		s-0.06,0.26-0.09,0.41c-0.03,0.15-0.05,0.3-0.07,0.46c-0.02,0.16-0.03,0.3-0.03,0.43c0,0.11,0.02,0.24,0.06,0.39
		c0.04,0.15,0.11,0.28,0.21,0.41c0.1,0.13,0.24,0.23,0.43,0.31c0.18,0.08,0.42,0.12,0.71,0.12c0.52,0,0.99-0.14,1.42-0.41
		c0.43-0.27,0.82-0.58,1.18-0.92L88.13,26.3z M86.92,20.55c0-0.49-0.17-0.74-0.51-0.74c-0.27,0-0.53,0.16-0.79,0.48
		c-0.26,0.32-0.49,0.7-0.7,1.13s-0.38,0.86-0.52,1.29c-0.14,0.43-0.23,0.75-0.27,0.97c0.34-0.04,0.68-0.17,1.01-0.39
		c0.33-0.22,0.63-0.48,0.89-0.79c0.27-0.3,0.48-0.63,0.65-0.98C86.83,21.18,86.92,20.85,86.92,20.55z"/>
	<path class="st1" d="M101.66,19.44h2.64l-1.88,6.65c-0.05,0.18-0.08,0.3-0.09,0.37c-0.01,0.07-0.02,0.16-0.02,0.26
		c0,0.08,0.03,0.13,0.09,0.17c0.06,0.04,0.13,0.06,0.21,0.06c0.08,0,0.16-0.04,0.26-0.11c0.09-0.08,0.2-0.17,0.3-0.29
		c0.11-0.12,0.22-0.25,0.32-0.4c0.11-0.15,0.2-0.29,0.28-0.45l0.36,0.29c-0.11,0.22-0.27,0.47-0.47,0.77
		c-0.2,0.3-0.43,0.58-0.71,0.85c-0.28,0.27-0.58,0.49-0.91,0.67c-0.33,0.18-0.68,0.28-1.06,0.28c-0.42,0-0.73-0.13-0.93-0.38
		c-0.2-0.25-0.3-0.57-0.3-0.95c0-0.16,0.01-0.37,0.04-0.61s0.05-0.4,0.08-0.48l-0.04-0.04c-0.25,0.34-0.51,0.66-0.78,0.96
		c-0.27,0.3-0.54,0.56-0.83,0.78s-0.58,0.4-0.88,0.52c-0.3,0.13-0.61,0.19-0.93,0.19c-0.63,0-1.08-0.14-1.34-0.41
		c-0.26-0.27-0.39-0.66-0.39-1.17c0-0.27,0.02-0.49,0.06-0.67s0.09-0.38,0.15-0.6l-0.04-0.06c-0.11,0.18-0.28,0.43-0.51,0.76
		c-0.23,0.33-0.5,0.65-0.83,0.97c-0.32,0.32-0.68,0.59-1.08,0.83s-0.83,0.35-1.28,0.35c-0.51,0-0.88-0.14-1.12-0.42
		c-0.24-0.28-0.36-0.64-0.36-1.08c0-0.22,0.03-0.43,0.08-0.65c0.05-0.22,0.11-0.45,0.17-0.7l1.01-3.99
		c0.06-0.25,0.11-0.44,0.13-0.55c0.02-0.11,0.04-0.22,0.04-0.3c0-0.24-0.09-0.4-0.27-0.47c-0.18-0.07-0.43-0.1-0.76-0.1l0.1-0.51
		c0.86-0.05,1.58-0.1,2.16-0.16c0.58-0.06,1.13-0.16,1.66-0.29l0.17,0.13l-1.75,6.33c-0.03,0.1-0.06,0.23-0.1,0.38
		c-0.04,0.15-0.07,0.28-0.07,0.38c0,0.35,0.16,0.53,0.48,0.53c0.3,0,0.61-0.18,0.93-0.54c0.32-0.36,0.62-0.79,0.9-1.28
		s0.53-0.99,0.74-1.5c0.21-0.51,0.36-0.91,0.45-1.22l0.89-3.08h2.66c-0.08,0.14-0.18,0.41-0.3,0.8c-0.13,0.39-0.27,0.84-0.42,1.35
		c-0.15,0.51-0.3,1.04-0.46,1.61c-0.15,0.56-0.29,1.09-0.42,1.57c-0.13,0.48-0.23,0.89-0.31,1.24c-0.08,0.34-0.12,0.54-0.12,0.61
		c0,0.3,0.18,0.46,0.55,0.46c0.23,0,0.49-0.15,0.79-0.44c0.3-0.29,0.6-0.67,0.89-1.14c0.3-0.47,0.58-1,0.85-1.59
		s0.48-1.17,0.63-1.76L101.66,19.44z"/>
	<path class="st1" d="M113,23.34c0.08,0,0.15,0,0.24,0.01c0.08,0.01,0.17,0.01,0.28,0.01c0.57,0,1.02-0.15,1.35-0.45
		c0.33-0.3,0.5-0.72,0.51-1.26c0-0.44-0.15-0.79-0.45-1.03c-0.3-0.24-0.67-0.36-1.11-0.36c-0.27,0-0.6,0.07-1.01,0.21
		c-0.41,0.14-0.81,0.37-1.22,0.68l-0.34-0.42c0.75-0.6,1.43-1,2.06-1.22s1.16-0.32,1.61-0.32c0.87,0,1.54,0.2,2,0.59
		c0.46,0.39,0.69,0.88,0.69,1.46c0,0.28-0.06,0.55-0.17,0.82c-0.11,0.27-0.28,0.51-0.49,0.73c-0.22,0.22-0.48,0.41-0.79,0.55
		c-0.31,0.15-0.66,0.24-1.05,0.28v0.04c0.65,0.1,1.16,0.29,1.53,0.55s0.56,0.72,0.56,1.35c0,0.38-0.08,0.75-0.25,1.11
		c-0.17,0.36-0.41,0.68-0.74,0.96c-0.33,0.28-0.74,0.5-1.23,0.67c-0.49,0.16-1.06,0.25-1.72,0.25c-0.56,0-1.04-0.06-1.43-0.17
		c-0.4-0.11-0.73-0.27-0.98-0.47c-0.25-0.2-0.44-0.42-0.56-0.67c-0.12-0.25-0.18-0.53-0.18-0.82c0-0.41,0.11-0.75,0.33-1.04
		s0.5-0.44,0.83-0.44c0.25,0,0.48,0.08,0.67,0.24c0.2,0.16,0.29,0.4,0.29,0.73c0,0.25-0.03,0.44-0.1,0.57
		c-0.07,0.13-0.15,0.23-0.24,0.3c-0.09,0.08-0.17,0.14-0.24,0.2c-0.07,0.06-0.1,0.14-0.1,0.24c0,0.22,0.1,0.37,0.31,0.48
		s0.45,0.15,0.71,0.15c0.39,0,0.73-0.09,1-0.26c0.27-0.17,0.49-0.39,0.67-0.65c0.17-0.26,0.29-0.54,0.37-0.83
		c0.08-0.29,0.11-0.56,0.11-0.82c0-0.48-0.09-0.81-0.28-0.98c-0.18-0.17-0.47-0.26-0.86-0.26c-0.14,0-0.26,0-0.37,0
		s-0.22,0.01-0.33,0.02L113,23.34z"/>
	<path class="st1" d="M119.16,25.31c0-0.8,0.16-1.56,0.48-2.3c0.32-0.73,0.73-1.39,1.23-1.96c0.5-0.57,1.06-1.02,1.68-1.36
		c0.62-0.34,1.23-0.5,1.84-0.5c0.39,0,0.76,0.08,1.09,0.24c0.34,0.16,0.59,0.42,0.75,0.77h0.04c-0.05-0.77-0.19-1.46-0.42-2.05
		c-0.23-0.6-0.52-1.11-0.86-1.54c-0.35-0.43-0.75-0.79-1.21-1.07c-0.46-0.29-0.94-0.52-1.46-0.69l0.27-0.53
		c1.13,0.29,2.06,0.69,2.81,1.19c0.75,0.5,1.34,1.07,1.79,1.72s0.75,1.34,0.93,2.08c0.18,0.74,0.27,1.49,0.27,2.25
		c0,0.8-0.14,1.61-0.42,2.43c-0.28,0.82-0.67,1.57-1.19,2.25c-0.51,0.68-1.13,1.23-1.86,1.66c-0.73,0.43-1.55,0.65-2.46,0.65
		c-0.42,0-0.82-0.05-1.22-0.16c-0.39-0.11-0.74-0.29-1.05-0.53c-0.31-0.25-0.56-0.58-0.74-1C119.25,26.44,119.16,25.92,119.16,25.31
		z M121.63,26.63c0,0.44,0.06,0.77,0.19,0.99c0.13,0.22,0.37,0.32,0.74,0.32c0.3,0,0.6-0.13,0.87-0.39c0.28-0.26,0.54-0.6,0.78-1.01
		c0.24-0.41,0.46-0.87,0.66-1.37s0.36-0.99,0.5-1.47c0.14-0.48,0.25-0.93,0.32-1.34s0.11-0.73,0.11-0.96c0-0.52-0.07-0.92-0.22-1.19
		s-0.42-0.41-0.83-0.41c-0.32,0-0.61,0.14-0.88,0.41s-0.53,0.62-0.76,1.04c-0.23,0.42-0.44,0.9-0.63,1.43
		c-0.18,0.53-0.34,1.04-0.47,1.55c-0.13,0.51-0.23,0.98-0.29,1.41C121.66,26.07,121.63,26.4,121.63,26.63z"/>
	<path class="st1" d="M136.68,19.44h2.41l-1.92,6.52c-0.03,0.1-0.05,0.19-0.08,0.28c-0.03,0.08-0.04,0.16-0.04,0.22
		c0,0.18,0.04,0.3,0.11,0.37c0.08,0.07,0.16,0.1,0.27,0.1c0.21,0,0.42-0.12,0.61-0.36l0.57-0.78l0.4,0.27
		c-0.53,0.84-1.07,1.46-1.61,1.87c-0.54,0.41-1.04,0.62-1.5,0.62c-0.44,0-0.75-0.13-0.93-0.38c-0.18-0.25-0.27-0.65-0.27-1.18
		c0-0.22,0.02-0.46,0.06-0.72l-0.04-0.04c-0.19,0.29-0.39,0.57-0.61,0.85c-0.22,0.27-0.45,0.52-0.71,0.74
		c-0.26,0.22-0.55,0.4-0.86,0.53c-0.32,0.13-0.67,0.2-1.04,0.2c-0.35,0-0.66-0.06-0.92-0.19c-0.26-0.13-0.48-0.3-0.65-0.51
		c-0.17-0.22-0.3-0.47-0.38-0.76c-0.08-0.29-0.12-0.6-0.12-0.93c0-0.39,0.07-0.84,0.2-1.34c0.13-0.5,0.32-1.01,0.57-1.53
		c0.25-0.52,0.53-1.02,0.86-1.51s0.69-0.92,1.08-1.3s0.8-0.69,1.23-0.92s0.87-0.35,1.33-0.35c0.38,0,0.72,0.1,1.03,0.29
		c0.3,0.19,0.54,0.46,0.72,0.8L136.68,19.44z M136.03,21c0-0.27-0.06-0.49-0.17-0.68c-0.11-0.19-0.33-0.29-0.65-0.29
		c-0.27,0-0.53,0.12-0.8,0.35c-0.27,0.23-0.52,0.54-0.76,0.91s-0.46,0.79-0.67,1.24s-0.38,0.9-0.53,1.34
		c-0.15,0.44-0.27,0.84-0.35,1.21c-0.08,0.37-0.12,0.65-0.12,0.85c0,0.25,0.07,0.5,0.21,0.75c0.14,0.25,0.34,0.37,0.59,0.37
		c0.32,0,0.62-0.14,0.91-0.43c0.29-0.28,0.56-0.64,0.8-1.07s0.46-0.9,0.65-1.41c0.19-0.51,0.35-0.98,0.48-1.43
		c0.13-0.45,0.23-0.83,0.3-1.15C136,21.26,136.03,21.07,136.03,21z"/>
	<path class="st1" d="M140.7,19.77c0.3,0,0.63-0.02,0.98-0.05c0.35-0.03,0.68-0.07,1.01-0.11c0.32-0.04,0.62-0.1,0.9-0.17
		c0.28-0.07,0.51-0.15,0.68-0.24l0.32,0.23c-0.14,0.38-0.27,0.81-0.39,1.29c-0.12,0.48-0.24,0.94-0.35,1.39l0.04,0.04
		c0.56-1.03,1.16-1.77,1.81-2.24c0.65-0.47,1.29-0.7,1.93-0.7c0.51,0,0.87,0.14,1.1,0.42c0.23,0.28,0.34,0.65,0.34,1.12
		c0,0.19-0.02,0.38-0.07,0.56s-0.09,0.35-0.14,0.48l0.04,0.04c0.54-0.84,1.11-1.48,1.71-1.94c0.6-0.46,1.21-0.68,1.84-0.68
		c0.51,0,0.87,0.14,1.1,0.42c0.23,0.28,0.34,0.65,0.34,1.12c0,0.2-0.04,0.48-0.11,0.82c-0.08,0.34-0.17,0.72-0.29,1.12
		c-0.11,0.41-0.23,0.82-0.36,1.24c-0.13,0.42-0.25,0.82-0.36,1.19c-0.11,0.37-0.21,0.68-0.28,0.95c-0.08,0.27-0.11,0.44-0.11,0.51
		c0,0.15,0.04,0.25,0.11,0.29c0.08,0.04,0.15,0.07,0.21,0.07c0.13,0,0.28-0.09,0.45-0.28s0.43-0.5,0.77-0.94l0.36,0.32
		c-0.37,0.51-0.7,0.92-1,1.24c-0.3,0.32-0.57,0.58-0.83,0.77s-0.5,0.32-0.73,0.39c-0.23,0.07-0.47,0.1-0.71,0.1
		c-0.32,0-0.6-0.12-0.84-0.36c-0.24-0.24-0.36-0.58-0.36-1.03c0-0.2,0.04-0.47,0.11-0.81c0.08-0.34,0.17-0.71,0.28-1.11
		c0.11-0.41,0.23-0.82,0.36-1.25c0.13-0.43,0.25-0.83,0.36-1.2c0.11-0.37,0.21-0.69,0.29-0.96c0.08-0.27,0.11-0.45,0.11-0.54
		c0-0.18-0.03-0.32-0.09-0.44c-0.06-0.11-0.2-0.17-0.4-0.17c-0.06,0-0.21,0.07-0.43,0.2c-0.22,0.13-0.47,0.36-0.75,0.69
		c-0.28,0.33-0.57,0.78-0.86,1.35c-0.3,0.57-0.56,1.3-0.79,2.19l-0.8,3.19h-2.6l1.75-6.33c0.04-0.13,0.07-0.25,0.1-0.36
		s0.05-0.22,0.05-0.32c0-0.14-0.04-0.28-0.13-0.41c-0.09-0.13-0.21-0.2-0.36-0.2c-0.06,0-0.21,0.07-0.43,0.2
		c-0.22,0.13-0.47,0.36-0.75,0.69c-0.28,0.33-0.57,0.78-0.86,1.35c-0.3,0.57-0.56,1.3-0.79,2.19l-0.8,3.19h-2.62l1.75-6.33
		c0.01-0.04,0.03-0.1,0.06-0.2c0.03-0.1,0.05-0.2,0.08-0.3c0.03-0.11,0.05-0.21,0.07-0.31c0.02-0.1,0.03-0.17,0.03-0.21
		c0-0.25-0.06-0.43-0.19-0.52c-0.13-0.1-0.44-0.14-0.95-0.14L140.7,19.77z"/>
	<path class="st1" d="M162.9,19.44h2.64l-1.88,6.65c-0.05,0.18-0.08,0.3-0.09,0.37c-0.01,0.07-0.02,0.16-0.02,0.26
		c0,0.08,0.03,0.13,0.1,0.17c0.06,0.04,0.13,0.06,0.21,0.06c0.08,0,0.16-0.04,0.26-0.11c0.09-0.08,0.2-0.17,0.3-0.29
		c0.11-0.12,0.22-0.25,0.32-0.4c0.11-0.15,0.2-0.29,0.28-0.45l0.36,0.29c-0.11,0.22-0.27,0.47-0.47,0.77
		c-0.2,0.3-0.43,0.58-0.71,0.85c-0.28,0.27-0.58,0.49-0.91,0.67c-0.33,0.18-0.68,0.28-1.06,0.28c-0.42,0-0.73-0.13-0.93-0.38
		c-0.2-0.25-0.3-0.57-0.3-0.95c0-0.16,0.01-0.37,0.04-0.61c0.02-0.24,0.05-0.4,0.08-0.48l-0.04-0.04c-0.25,0.34-0.51,0.66-0.78,0.96
		c-0.27,0.3-0.54,0.56-0.83,0.78c-0.28,0.22-0.58,0.4-0.88,0.52s-0.61,0.19-0.93,0.19c-0.51,0-0.88-0.14-1.12-0.42
		c-0.24-0.28-0.36-0.64-0.36-1.08c0-0.22,0.03-0.43,0.08-0.65c0.05-0.22,0.11-0.45,0.17-0.7l1.01-3.99
		c0.06-0.25,0.11-0.44,0.13-0.55c0.02-0.11,0.04-0.22,0.04-0.3c0-0.24-0.09-0.4-0.27-0.47c-0.18-0.07-0.43-0.1-0.76-0.1l0.1-0.51
		c0.86-0.05,1.58-0.1,2.16-0.16c0.58-0.06,1.13-0.16,1.66-0.29l0.17,0.13l-1.75,6.33c-0.03,0.1-0.06,0.23-0.1,0.38
		c-0.04,0.15-0.07,0.28-0.07,0.38c0,0.32,0.16,0.49,0.48,0.53c0.22-0.01,0.45-0.14,0.71-0.37s0.52-0.54,0.78-0.92
		c0.26-0.38,0.5-0.81,0.71-1.28s0.39-0.96,0.53-1.45L162.9,19.44z"/>
	<path class="st1" d="M176.56,20.87c0.18,0.01,0.35,0.03,0.51,0.04c0.16,0.01,0.34,0.02,0.53,0.02c0.46,0,0.86-0.09,1.22-0.26
		c0.35-0.17,0.66-0.41,0.91-0.7c0.25-0.3,0.45-0.65,0.58-1.05c0.13-0.4,0.2-0.84,0.2-1.31c0-1.43-0.65-2.15-1.94-2.15
		c-0.52,0-1,0.1-1.44,0.3s-0.85,0.48-1.22,0.83c-0.37,0.35-0.7,0.76-0.99,1.23c-0.29,0.47-0.54,0.97-0.76,1.5h-0.51l1.23-4.45h0.51
		c0,0.18,0.05,0.3,0.16,0.37c0.11,0.07,0.25,0.1,0.43,0.1c0.13,0,0.28-0.03,0.48-0.08c0.19-0.05,0.4-0.11,0.65-0.17
		c0.24-0.06,0.51-0.12,0.81-0.17c0.3-0.05,0.62-0.08,0.96-0.08c0.11,0,0.31,0.01,0.58,0.02c0.27,0.01,0.58,0.05,0.91,0.1
		c0.34,0.06,0.69,0.15,1.05,0.28c0.37,0.13,0.7,0.31,1,0.55c0.3,0.24,0.54,0.55,0.74,0.92c0.2,0.37,0.29,0.83,0.29,1.36
		c0,0.38-0.06,0.75-0.19,1.11c-0.13,0.36-0.33,0.69-0.62,1c-0.28,0.3-0.66,0.56-1.11,0.78s-1.01,0.37-1.67,0.46v0.04
		c0.34,0.08,0.67,0.19,0.98,0.33c0.31,0.15,0.58,0.33,0.81,0.56c0.23,0.23,0.41,0.5,0.54,0.83c0.13,0.32,0.2,0.71,0.2,1.15
		c0,0.65-0.15,1.23-0.45,1.76c-0.3,0.53-0.72,0.98-1.25,1.36c-0.54,0.38-1.19,0.67-1.95,0.88c-0.76,0.21-1.6,0.31-2.51,0.31
		c-0.6,0-1.18-0.09-1.75-0.26c-0.57-0.17-1.08-0.4-1.52-0.69c-0.44-0.29-0.8-0.64-1.06-1.04c-0.27-0.41-0.4-0.84-0.4-1.31
		c0-0.2,0.03-0.4,0.1-0.59c0.07-0.19,0.17-0.36,0.29-0.51c0.13-0.15,0.28-0.27,0.47-0.36c0.18-0.09,0.4-0.13,0.64-0.13
		c0.35,0,0.66,0.12,0.9,0.37s0.37,0.54,0.37,0.88c0,0.24-0.04,0.44-0.12,0.6c-0.08,0.16-0.17,0.29-0.28,0.41
		c-0.1,0.11-0.19,0.22-0.28,0.32c-0.08,0.1-0.12,0.22-0.12,0.34s0.04,0.26,0.11,0.39c0.08,0.13,0.19,0.26,0.34,0.37
		c0.15,0.11,0.35,0.21,0.6,0.28c0.25,0.07,0.54,0.1,0.88,0.1c0.77,0,1.4-0.16,1.89-0.48c0.49-0.32,0.87-0.7,1.15-1.14
		s0.47-0.91,0.56-1.4c0.1-0.49,0.14-0.9,0.14-1.24c0-0.66-0.19-1.12-0.57-1.39c-0.38-0.27-0.91-0.4-1.6-0.4
		c-0.11,0-0.23,0-0.34,0.01c-0.11,0.01-0.22,0.01-0.32,0.01L176.56,20.87z"/>
	<path class="st1" d="M194.66,20.89l1.03-3.65c0.04-0.13,0.07-0.25,0.1-0.36c0.02-0.11,0.04-0.25,0.04-0.4
		c0-0.33-0.11-0.54-0.32-0.63c-0.22-0.09-0.56-0.14-1.03-0.15l0.09-0.51h6.33l-0.11,0.51c-0.24,0-0.45,0.02-0.64,0.05
		s-0.35,0.09-0.49,0.18c-0.15,0.09-0.27,0.22-0.37,0.38c-0.1,0.16-0.19,0.38-0.27,0.65l-2.6,9.29c-0.04,0.14-0.07,0.27-0.1,0.38
		c-0.03,0.11-0.04,0.25-0.04,0.4c0,0.32,0.12,0.52,0.35,0.61c0.23,0.09,0.59,0.14,1.05,0.15l-0.11,0.51h-6.38l0.11-0.51
		c0.43-0.01,0.79-0.08,1.09-0.19c0.3-0.11,0.5-0.38,0.62-0.8l1.42-5.07h-4.77l-1.27,4.52c-0.03,0.1-0.05,0.2-0.08,0.3
		c-0.03,0.1-0.04,0.22-0.04,0.36c0,0.33,0.11,0.55,0.32,0.67c0.22,0.12,0.56,0.19,1.04,0.2l-0.11,0.51h-6.37l0.11-0.51
		c0.43-0.01,0.79-0.08,1.09-0.19c0.3-0.11,0.5-0.38,0.62-0.8l2.7-9.56c0.04-0.13,0.07-0.25,0.1-0.36c0.02-0.11,0.04-0.25,0.04-0.42
		c0-0.32-0.11-0.52-0.33-0.61c-0.22-0.09-0.56-0.14-1.02-0.15l0.11-0.51h6.29l-0.11,0.51c-0.41,0.01-0.76,0.08-1.05,0.19
		c-0.3,0.11-0.5,0.38-0.62,0.8l-1.18,4.2H194.66z"/>
	<path class="st1" d="M200.71,23.51c0-0.7,0.11-1.4,0.34-2.1c0.23-0.7,0.54-1.37,0.93-2.01s0.86-1.24,1.41-1.8
		c0.54-0.56,1.13-1.04,1.76-1.44c0.63-0.41,1.29-0.73,1.99-0.96c0.7-0.23,1.4-0.35,2.11-0.35c0.8,0,1.53,0.1,2.2,0.29
		c0.67,0.2,1.25,0.49,1.74,0.88c0.49,0.39,0.87,0.88,1.14,1.47c0.27,0.59,0.41,1.27,0.41,2.04c0,1.19-0.24,2.33-0.71,3.43
		c-0.48,1.1-1.12,2.06-1.93,2.91s-1.76,1.51-2.84,2.01c-1.08,0.5-2.23,0.75-3.45,0.75c-0.76,0-1.45-0.13-2.07-0.38
		c-0.62-0.25-1.16-0.61-1.61-1.06s-0.8-1-1.04-1.62S200.71,24.26,200.71,23.51z M211.5,18.09c0-0.79-0.17-1.41-0.51-1.86
		c-0.34-0.46-0.91-0.68-1.69-0.68c-0.6,0-1.14,0.19-1.63,0.56c-0.49,0.37-0.94,0.85-1.34,1.44c-0.4,0.59-0.75,1.25-1.04,2
		c-0.3,0.74-0.54,1.48-0.74,2.2s-0.35,1.42-0.45,2.06c-0.1,0.65-0.15,1.17-0.15,1.58c0,0.79,0.17,1.41,0.51,1.86
		c0.34,0.46,0.91,0.68,1.69,0.68c0.6,0,1.14-0.19,1.63-0.56s0.94-0.85,1.34-1.44c0.4-0.59,0.75-1.25,1.04-1.99
		c0.3-0.74,0.54-1.48,0.74-2.2s0.34-1.42,0.45-2.06S211.5,18.5,211.5,18.09z"/>
	<path class="st1" d="M228.35,19.44h2.64l-1.88,6.65c-0.05,0.18-0.08,0.3-0.1,0.37C229,26.53,229,26.62,229,26.72
		c0,0.08,0.03,0.13,0.09,0.17c0.06,0.04,0.13,0.06,0.21,0.06s0.16-0.04,0.26-0.11c0.09-0.08,0.2-0.17,0.3-0.29
		c0.11-0.12,0.22-0.25,0.32-0.4c0.11-0.15,0.2-0.29,0.28-0.45l0.36,0.29c-0.11,0.22-0.27,0.47-0.47,0.77
		c-0.2,0.3-0.43,0.58-0.71,0.85c-0.28,0.27-0.58,0.49-0.91,0.67c-0.33,0.18-0.68,0.28-1.06,0.28c-0.42,0-0.73-0.13-0.93-0.38
		c-0.2-0.25-0.3-0.57-0.3-0.95c0-0.33,0.05-0.73,0.15-1.21s0.27-1.12,0.49-1.95h-2.24l-1.16,4.24h-2.66l1.84-6.59
		c0.06-0.25,0.11-0.44,0.13-0.55c0.03-0.11,0.04-0.22,0.04-0.3c0-0.24-0.09-0.4-0.27-0.47c-0.18-0.07-0.43-0.1-0.76-0.1l0.09-0.51
		c0.86-0.05,1.58-0.1,2.16-0.16c0.58-0.06,1.13-0.16,1.66-0.29l0.17,0.13l-1.1,4.01h2.26L228.35,19.44z"/>
	<path class="st1" d="M239.09,19.44h2.41l-1.92,6.52c-0.03,0.1-0.05,0.19-0.08,0.28c-0.03,0.08-0.04,0.16-0.04,0.22
		c0,0.18,0.04,0.3,0.11,0.37c0.08,0.07,0.17,0.1,0.27,0.1c0.21,0,0.42-0.12,0.61-0.36l0.57-0.78l0.4,0.27
		c-0.53,0.84-1.07,1.46-1.62,1.87c-0.54,0.41-1.04,0.62-1.5,0.62c-0.44,0-0.75-0.13-0.93-0.38c-0.18-0.25-0.27-0.65-0.27-1.18
		c0-0.22,0.02-0.46,0.06-0.72l-0.04-0.04c-0.19,0.29-0.39,0.57-0.61,0.85c-0.22,0.27-0.45,0.52-0.71,0.74s-0.55,0.4-0.86,0.53
		c-0.32,0.13-0.67,0.2-1.04,0.2c-0.35,0-0.66-0.06-0.92-0.19s-0.47-0.3-0.65-0.51c-0.17-0.22-0.3-0.47-0.38-0.76
		c-0.08-0.29-0.12-0.6-0.12-0.93c0-0.39,0.07-0.84,0.2-1.34c0.13-0.5,0.32-1.01,0.57-1.53c0.25-0.52,0.54-1.02,0.87-1.51
		c0.33-0.49,0.69-0.92,1.08-1.3c0.39-0.38,0.8-0.69,1.23-0.92s0.87-0.35,1.33-0.35c0.38,0,0.72,0.1,1.03,0.29
		c0.3,0.19,0.54,0.46,0.72,0.8L239.09,19.44z M238.44,21c0-0.27-0.06-0.49-0.17-0.68s-0.33-0.29-0.65-0.29
		c-0.27,0-0.53,0.12-0.8,0.35c-0.27,0.23-0.52,0.54-0.76,0.91s-0.46,0.79-0.67,1.24c-0.2,0.46-0.38,0.9-0.53,1.34
		c-0.15,0.44-0.27,0.84-0.35,1.21c-0.08,0.37-0.12,0.65-0.12,0.85c0,0.25,0.07,0.5,0.21,0.75s0.33,0.37,0.59,0.37
		c0.32,0,0.62-0.14,0.91-0.43c0.29-0.28,0.56-0.64,0.8-1.07s0.46-0.9,0.65-1.41c0.19-0.51,0.35-0.98,0.48-1.43
		c0.13-0.45,0.23-0.83,0.3-1.15C238.4,21.26,238.44,21.07,238.44,21z"/>
	<path class="st1" d="M246.74,27.82l4.07-4.08c0.94-0.95,1.62-1.81,2.06-2.59c0.44-0.78,0.66-1.48,0.66-2.1
		c0-0.68-0.17-1.2-0.52-1.56c-0.35-0.35-0.85-0.53-1.49-0.53c-0.53,0-1.01,0.15-1.44,0.46c-0.43,0.3-0.77,0.67-1.03,1.08l-0.47-0.25
		c0.21-0.44,0.47-0.86,0.77-1.26c0.3-0.4,0.63-0.75,1.01-1.05c0.37-0.3,0.79-0.54,1.24-0.72c0.45-0.18,0.93-0.27,1.45-0.27
		c0.47,0,0.92,0.06,1.36,0.19c0.44,0.13,0.82,0.32,1.16,0.59c0.33,0.27,0.6,0.61,0.8,1.04s0.29,0.93,0.29,1.53
		c0,0.43-0.07,0.85-0.22,1.25s-0.38,0.82-0.7,1.25s-0.74,0.88-1.26,1.34s-1.15,0.97-1.88,1.51l-2.89,2.15v0.04h3.25
		c0.38,0,0.7-0.01,0.95-0.04c0.25-0.03,0.47-0.09,0.66-0.2c0.19-0.11,0.36-0.26,0.52-0.47c0.16-0.2,0.33-0.48,0.52-0.84h0.51
		l-1.6,4.01h-7.77V27.82z"/>
	<path class="st1" d="M268.1,19.42c0,0.58-0.06,1.21-0.17,1.89s-0.29,1.36-0.51,2.03c-0.23,0.68-0.52,1.33-0.87,1.96
		c-0.35,0.63-0.76,1.18-1.24,1.66c-0.48,0.48-1.03,0.86-1.63,1.15c-0.61,0.29-1.29,0.43-2.03,0.43c-0.57,0-1.06-0.13-1.46-0.39
		c-0.41-0.26-0.74-0.6-1.01-1.03c-0.27-0.42-0.46-0.91-0.58-1.46c-0.12-0.55-0.18-1.12-0.18-1.7c0-0.62,0.07-1.27,0.21-1.96
		c0.14-0.68,0.33-1.36,0.59-2.03c0.25-0.67,0.56-1.31,0.93-1.92c0.37-0.61,0.78-1.14,1.24-1.61c0.46-0.46,0.95-0.83,1.47-1.1
		c0.53-0.27,1.09-0.41,1.68-0.41c0.66,0,1.21,0.12,1.66,0.37c0.45,0.25,0.82,0.58,1.1,1c0.29,0.42,0.49,0.9,0.62,1.43
		C268.04,18.28,268.1,18.84,268.1,19.42z M265.74,16.69c0-0.13-0.01-0.26-0.04-0.39c-0.03-0.13-0.08-0.26-0.15-0.37
		c-0.08-0.11-0.18-0.21-0.32-0.28c-0.14-0.07-0.32-0.1-0.55-0.1c-0.25,0-0.51,0.16-0.77,0.49s-0.51,0.76-0.75,1.29
		c-0.24,0.53-0.47,1.14-0.69,1.82s-0.43,1.38-0.62,2.09c-0.27,0.98-0.47,1.77-0.62,2.39c-0.15,0.62-0.25,1.13-0.32,1.53
		s-0.11,0.72-0.12,0.96c-0.01,0.24-0.02,0.48-0.02,0.7c0,0.35,0.09,0.63,0.26,0.82s0.36,0.29,0.58,0.29c0.19,0,0.37-0.04,0.54-0.11
		c0.17-0.08,0.34-0.22,0.52-0.45c0.18-0.22,0.36-0.53,0.54-0.91c0.18-0.39,0.37-0.89,0.56-1.51c0.18-0.49,0.35-1.02,0.52-1.58
		c0.17-0.56,0.33-1.11,0.48-1.67c0.15-0.56,0.29-1.1,0.41-1.64c0.12-0.54,0.22-1.03,0.31-1.47c0.09-0.44,0.15-0.83,0.2-1.17
		C265.74,17.08,265.75,16.84,265.74,16.69z"/>
	<path class="st1" d="M279.61,19.42c0,0.58-0.06,1.21-0.17,1.89s-0.29,1.36-0.51,2.03c-0.23,0.68-0.52,1.33-0.87,1.96
		c-0.35,0.63-0.76,1.18-1.24,1.66c-0.48,0.48-1.03,0.86-1.63,1.15c-0.61,0.29-1.29,0.43-2.03,0.43c-0.57,0-1.06-0.13-1.46-0.39
		c-0.41-0.26-0.74-0.6-1.01-1.03c-0.27-0.42-0.46-0.91-0.58-1.46c-0.12-0.55-0.18-1.12-0.18-1.7c0-0.62,0.07-1.27,0.21-1.96
		c0.14-0.68,0.33-1.36,0.59-2.03c0.25-0.67,0.56-1.31,0.93-1.92c0.37-0.61,0.78-1.14,1.24-1.61c0.46-0.46,0.95-0.83,1.47-1.1
		c0.53-0.27,1.09-0.41,1.68-0.41c0.66,0,1.21,0.12,1.66,0.37c0.45,0.25,0.82,0.58,1.1,1c0.29,0.42,0.49,0.9,0.62,1.43
		C279.55,18.28,279.61,18.84,279.61,19.42z M277.26,16.69c0-0.13-0.01-0.26-0.04-0.39c-0.03-0.13-0.08-0.26-0.15-0.37
		c-0.08-0.11-0.18-0.21-0.32-0.28c-0.14-0.07-0.32-0.1-0.55-0.1c-0.25,0-0.51,0.16-0.77,0.49s-0.51,0.76-0.75,1.29
		c-0.24,0.53-0.47,1.14-0.69,1.82s-0.43,1.38-0.62,2.09c-0.27,0.98-0.47,1.77-0.62,2.39c-0.15,0.62-0.25,1.13-0.32,1.53
		s-0.11,0.72-0.12,0.96c-0.01,0.24-0.02,0.48-0.02,0.7c0,0.35,0.09,0.63,0.26,0.82s0.36,0.29,0.58,0.29c0.19,0,0.37-0.04,0.54-0.11
		c0.17-0.08,0.34-0.22,0.52-0.45c0.18-0.22,0.36-0.53,0.54-0.91c0.18-0.39,0.37-0.89,0.56-1.51c0.18-0.49,0.35-1.02,0.52-1.58
		c0.17-0.56,0.33-1.11,0.48-1.67c0.15-0.56,0.29-1.1,0.41-1.64c0.12-0.54,0.22-1.03,0.31-1.47c0.09-0.44,0.15-0.83,0.2-1.17
		C277.25,17.08,277.27,16.84,277.26,16.69z"/>
	<path class="st1" d="M296.6,14.43c-0.18,0.6-0.35,1.07-0.53,1.43c-0.18,0.36-0.36,0.64-0.56,0.85c-0.2,0.2-0.41,0.34-0.64,0.4
		c-0.23,0.06-0.47,0.09-0.74,0.09c-0.41,0-0.78-0.03-1.12-0.09c-0.34-0.06-0.72-0.09-1.12-0.09c-0.54,0-1.04,0.15-1.5,0.44
		c-0.46,0.29-0.86,0.66-1.22,1.1s-0.66,0.92-0.91,1.44c-0.25,0.52-0.45,1.01-0.59,1.46l0.04,0.04c0.41-0.72,0.97-1.29,1.7-1.7
		s1.54-0.62,2.42-0.62c0.43,0,0.84,0.06,1.23,0.18c0.39,0.12,0.72,0.31,1.02,0.56c0.29,0.25,0.52,0.58,0.69,0.98
		s0.26,0.88,0.26,1.43c0,0.73-0.17,1.47-0.51,2.21c-0.34,0.74-0.79,1.41-1.35,2c-0.56,0.59-1.2,1.07-1.93,1.43
		c-0.73,0.37-1.47,0.55-2.23,0.55c-0.91,0-1.63-0.28-2.15-0.85c-0.52-0.56-0.78-1.46-0.78-2.69c0-0.56,0.08-1.19,0.26-1.89
		c0.17-0.7,0.41-1.42,0.72-2.16c0.31-0.73,0.68-1.45,1.1-2.16c0.42-0.7,0.9-1.33,1.42-1.87c0.52-0.54,1.08-0.98,1.67-1.32
		c0.59-0.34,1.21-0.5,1.84-0.5c0.15,0,0.3,0,0.45,0.01s0.29,0.02,0.45,0.03c0.15,0.01,0.3,0.02,0.46,0.03
		c0.15,0.01,0.3,0.01,0.44,0.01c0.25,0,0.49-0.06,0.72-0.17c0.23-0.11,0.41-0.35,0.55-0.7L296.6,14.43z M288.43,26.82
		c0,0.3,0.07,0.56,0.2,0.78c0.13,0.22,0.33,0.33,0.58,0.34c0.37,0,0.7-0.15,1.01-0.46c0.3-0.3,0.58-0.69,0.82-1.16
		c0.24-0.47,0.45-0.98,0.63-1.53c0.18-0.55,0.33-1.07,0.45-1.55c0.12-0.48,0.21-0.89,0.27-1.23c0.06-0.34,0.09-0.54,0.09-0.61
		c0-0.61-0.06-1.03-0.19-1.25c-0.13-0.23-0.35-0.34-0.68-0.34c-0.37,0-0.7,0.15-1,0.45c-0.3,0.3-0.56,0.68-0.8,1.15
		c-0.23,0.47-0.44,0.98-0.61,1.54c-0.17,0.56-0.31,1.1-0.42,1.61c-0.11,0.52-0.19,0.99-0.25,1.4
		C288.46,26.36,288.43,26.65,288.43,26.82z"/>
	<path class="st1" d="M303.42,19.44h2.41l-1.92,6.52c-0.03,0.1-0.05,0.19-0.08,0.28c-0.03,0.08-0.04,0.16-0.04,0.22
		c0,0.18,0.04,0.3,0.11,0.37c0.08,0.07,0.17,0.1,0.27,0.1c0.21,0,0.42-0.12,0.61-0.36l0.57-0.78l0.4,0.27
		c-0.53,0.84-1.07,1.46-1.62,1.87c-0.54,0.41-1.04,0.62-1.5,0.62c-0.44,0-0.75-0.13-0.93-0.38c-0.18-0.25-0.27-0.65-0.27-1.18
		c0-0.22,0.02-0.46,0.06-0.72l-0.04-0.04c-0.19,0.29-0.39,0.57-0.61,0.85c-0.22,0.27-0.45,0.52-0.71,0.74s-0.55,0.4-0.86,0.53
		c-0.32,0.13-0.67,0.2-1.04,0.2c-0.35,0-0.66-0.06-0.92-0.19s-0.47-0.3-0.65-0.51c-0.17-0.22-0.3-0.47-0.38-0.76
		c-0.08-0.29-0.12-0.6-0.12-0.93c0-0.39,0.07-0.84,0.2-1.34c0.13-0.5,0.32-1.01,0.57-1.53c0.25-0.52,0.54-1.02,0.87-1.51
		c0.33-0.49,0.69-0.92,1.08-1.3c0.39-0.38,0.8-0.69,1.23-0.92s0.87-0.35,1.33-0.35c0.38,0,0.72,0.1,1.03,0.29
		c0.3,0.19,0.54,0.46,0.72,0.8L303.42,19.44z M302.77,21c0-0.27-0.06-0.49-0.17-0.68s-0.33-0.29-0.65-0.29
		c-0.27,0-0.53,0.12-0.8,0.35c-0.27,0.23-0.52,0.54-0.76,0.91s-0.46,0.79-0.67,1.24c-0.2,0.46-0.38,0.9-0.53,1.34
		c-0.15,0.44-0.27,0.84-0.35,1.21c-0.08,0.37-0.12,0.65-0.12,0.85c0,0.25,0.07,0.5,0.21,0.75s0.33,0.37,0.59,0.37
		c0.32,0,0.62-0.14,0.91-0.43c0.29-0.28,0.56-0.64,0.8-1.07s0.46-0.9,0.65-1.41c0.19-0.51,0.35-0.98,0.48-1.43
		c0.13-0.45,0.23-0.83,0.3-1.15C302.74,21.26,302.77,21.07,302.77,21z"/>
	<path class="st1" d="M316.36,25.94c-0.23,0.37-0.47,0.71-0.71,1.02s-0.5,0.59-0.76,0.83c-0.26,0.24-0.53,0.43-0.81,0.56
		c-0.28,0.13-0.57,0.2-0.87,0.2c-0.39,0-0.69-0.12-0.88-0.36c-0.2-0.24-0.29-0.54-0.29-0.91c0-0.16,0.04-0.41,0.11-0.74
		c0.08-0.33,0.17-0.7,0.29-1.1c0.11-0.41,0.23-0.83,0.36-1.27c0.13-0.44,0.25-0.86,0.36-1.24c0.11-0.39,0.21-0.73,0.28-1.03
		c0.08-0.3,0.11-0.5,0.11-0.62c0-0.24-0.07-0.42-0.22-0.55c-0.15-0.13-0.33-0.19-0.54-0.19c-0.46,0-0.88,0.23-1.26,0.67
		c-0.39,0.45-0.71,1.19-0.98,2.23l-0.65,2.55c-0.14,0.53-0.29,0.96-0.44,1.29s-0.32,0.59-0.5,0.78s-0.39,0.32-0.61,0.39
		c-0.22,0.07-0.47,0.1-0.73,0.1c-0.44,0-0.82-0.14-1.12-0.41c-0.3-0.27-0.46-0.62-0.46-1.04c0-0.32,0.09-0.6,0.26-0.85
		s0.43-0.37,0.77-0.37c0.27,0,0.48,0.07,0.65,0.22s0.25,0.35,0.25,0.6c0,0.18-0.02,0.33-0.07,0.45c-0.04,0.12-0.07,0.22-0.07,0.29
		c0,0.1,0.03,0.19,0.1,0.28c0.07,0.08,0.14,0.12,0.2,0.12c0.11,0,0.22-0.04,0.32-0.12c0.1-0.08,0.21-0.25,0.32-0.49
		c0.11-0.25,0.24-0.59,0.37-1.02s0.29-1,0.47-1.71l0.4-1.6c0.17-0.7,0.38-1.28,0.65-1.76c0.27-0.48,0.57-0.86,0.91-1.15
		c0.34-0.29,0.71-0.5,1.12-0.62c0.41-0.12,0.84-0.18,1.29-0.18c0.38,0,0.71,0.05,0.98,0.14c0.27,0.1,0.49,0.22,0.67,0.38
		c0.17,0.16,0.29,0.34,0.37,0.54c0.08,0.2,0.11,0.41,0.11,0.61c0,0.2-0.04,0.47-0.11,0.8s-0.17,0.69-0.29,1.08s-0.23,0.79-0.36,1.21
		c-0.13,0.41-0.25,0.8-0.36,1.17c-0.11,0.37-0.21,0.69-0.29,0.97c-0.08,0.28-0.11,0.48-0.11,0.61c0,0.05,0.02,0.09,0.07,0.12
		c0.04,0.03,0.1,0.05,0.16,0.05c0.08,0,0.22-0.1,0.45-0.29c0.22-0.2,0.45-0.5,0.67-0.9L316.36,25.94z"/>
	<path class="st1" d="M318.39,19.71c0.3,0,0.63-0.01,0.99-0.02c0.35-0.01,0.71-0.04,1.06-0.08s0.69-0.09,1.01-0.16
		c0.32-0.07,0.6-0.15,0.84-0.26l0.19,0.25l-2.07,7.03c-0.03,0.1-0.04,0.18-0.04,0.23c0,0.17,0.06,0.25,0.19,0.25
		c0.11,0,0.23-0.04,0.34-0.13c0.11-0.09,0.22-0.2,0.33-0.32c0.11-0.13,0.21-0.26,0.3-0.4c0.09-0.14,0.18-0.26,0.26-0.36l0.4,0.25
		c-0.19,0.29-0.39,0.59-0.61,0.89c-0.21,0.3-0.46,0.58-0.72,0.83c-0.27,0.25-0.56,0.45-0.88,0.61c-0.32,0.16-0.67,0.24-1.05,0.24
		c-0.36,0-0.63-0.1-0.83-0.29s-0.29-0.52-0.29-0.96c0-0.37,0.09-0.87,0.27-1.52l1.16-4.05c0.06-0.18,0.11-0.37,0.14-0.58
		c0.03-0.21,0.05-0.36,0.05-0.47c0-0.22-0.08-0.34-0.25-0.36c-0.17-0.03-0.46-0.06-0.87-0.1L318.39,19.71z M320.29,16.65
		c0-0.41,0.14-0.75,0.43-1.04c0.29-0.28,0.63-0.43,1.04-0.43c0.41,0,0.75,0.14,1.04,0.43c0.29,0.29,0.44,0.63,0.44,1.04
		s-0.15,0.75-0.44,1.04c-0.29,0.29-0.64,0.44-1.04,0.44c-0.41,0-0.75-0.15-1.04-0.44C320.43,17.4,320.29,17.06,320.29,16.65z"/>
	<path class="st1" d="M323.92,25.47c0-0.68,0.15-1.4,0.45-2.14c0.3-0.74,0.72-1.42,1.25-2.02c0.54-0.61,1.19-1.11,1.95-1.51
		s1.61-0.6,2.55-0.6c0.89,0,1.6,0.17,2.13,0.49c0.53,0.33,0.8,0.78,0.8,1.35c0,0.35-0.1,0.67-0.29,0.96
		c-0.19,0.28-0.43,0.53-0.73,0.72c-0.3,0.2-0.63,0.35-1.01,0.46c-0.37,0.11-0.75,0.16-1.11,0.14v0.04c0.35,0,0.68,0.03,0.99,0.09
		c0.3,0.06,0.57,0.17,0.8,0.31c0.23,0.15,0.41,0.33,0.53,0.55c0.13,0.22,0.19,0.49,0.19,0.81c0,0.39-0.1,0.79-0.31,1.2
		c-0.21,0.41-0.53,0.77-0.95,1.1c-0.42,0.33-0.96,0.6-1.61,0.81c-0.65,0.21-1.4,0.31-2.26,0.31c-0.48,0-0.93-0.07-1.34-0.2
		c-0.41-0.13-0.77-0.33-1.06-0.59c-0.3-0.26-0.53-0.58-0.7-0.96S323.92,25.97,323.92,25.47z M329.85,25.05
		c0-0.13-0.02-0.26-0.06-0.4c-0.04-0.14-0.1-0.27-0.18-0.38c-0.08-0.11-0.2-0.21-0.35-0.29c-0.15-0.08-0.34-0.11-0.57-0.11
		c-0.14,0-0.38,0.03-0.71,0.08c-0.34,0.05-0.7,0.13-1.09,0.23c-0.14,0.53-0.24,1.05-0.3,1.57c-0.06,0.51-0.1,0.92-0.1,1.23
		c0,0.37,0.1,0.64,0.31,0.81s0.48,0.26,0.81,0.26c0.38,0,0.71-0.12,0.99-0.35c0.28-0.23,0.51-0.51,0.69-0.84
		c0.18-0.32,0.32-0.65,0.42-0.99S329.85,25.25,329.85,25.05z M329.83,19.8c-0.67,0-1.22,0.28-1.65,0.85
		c-0.43,0.56-0.81,1.47-1.14,2.73c0.66-0.05,1.23-0.16,1.7-0.32c0.47-0.16,0.86-0.36,1.17-0.6c0.3-0.23,0.53-0.5,0.67-0.8
		c0.15-0.3,0.22-0.6,0.22-0.92c0-0.24-0.08-0.46-0.24-0.65C330.4,19.9,330.16,19.8,329.83,19.8z"/>
	<path class="st1" d="M335.04,27.08c0-0.43,0.15-0.8,0.46-1.1c0.3-0.3,0.67-0.46,1.1-0.46s0.8,0.15,1.1,0.46
		c0.3,0.3,0.46,0.67,0.46,1.1s-0.15,0.8-0.46,1.1c-0.3,0.3-0.67,0.46-1.1,0.46s-0.8-0.15-1.1-0.46
		C335.19,27.88,335.04,27.51,335.04,27.08z M337.05,24.19c0.14-0.65,0.31-1.21,0.51-1.68c0.2-0.48,0.41-0.9,0.63-1.26
		c0.21-0.37,0.43-0.7,0.65-1.01c0.22-0.3,0.41-0.61,0.58-0.92c0.17-0.31,0.31-0.64,0.41-0.99c0.1-0.35,0.15-0.76,0.15-1.23
		c0-0.51-0.1-0.91-0.3-1.21c-0.2-0.3-0.59-0.45-1.16-0.45c-0.21,0-0.43,0.05-0.64,0.14c-0.21,0.1-0.31,0.27-0.31,0.52
		c0,0.15,0.02,0.29,0.08,0.41c0.05,0.12,0.11,0.24,0.17,0.35c0.06,0.11,0.12,0.24,0.17,0.37c0.05,0.13,0.08,0.28,0.08,0.45
		c0,0.32-0.11,0.56-0.32,0.74c-0.22,0.18-0.48,0.27-0.78,0.27c-0.35,0-0.63-0.14-0.84-0.41c-0.2-0.27-0.3-0.58-0.3-0.92
		c0-0.43,0.1-0.8,0.31-1.12c0.21-0.32,0.48-0.58,0.81-0.79c0.33-0.21,0.69-0.36,1.09-0.47c0.4-0.1,0.78-0.15,1.15-0.15
		c0.46,0,0.9,0.06,1.33,0.17c0.43,0.11,0.81,0.29,1.15,0.53c0.34,0.24,0.6,0.55,0.8,0.92c0.2,0.37,0.29,0.81,0.29,1.32
		c0,0.7-0.22,1.29-0.66,1.78c-0.44,0.49-1.08,0.95-1.93,1.4c-0.49,0.27-0.89,0.5-1.18,0.7c-0.29,0.2-0.53,0.42-0.7,0.66
		c-0.18,0.23-0.31,0.51-0.41,0.83c-0.1,0.32-0.19,0.71-0.29,1.18L337.05,24.19z"/>
</g>
<g>
	<path class="st2" d="M46.44,40.68h4.61L50.6,42.4H46L46.44,40.68z"/>
	<path class="st2" d="M57.96,38.03c0.27,0,0.56-0.01,0.88-0.04c0.31-0.03,0.61-0.06,0.9-0.1c0.29-0.04,0.56-0.09,0.81-0.15
		c0.25-0.06,0.45-0.13,0.61-0.21l0.29,0.2c-0.13,0.34-0.24,0.73-0.35,1.16c-0.11,0.43-0.21,0.84-0.31,1.24l0.03,0.03
		c0.5-0.92,1.04-1.59,1.62-2.01c0.58-0.42,1.16-0.63,1.73-0.63c0.45,0,0.78,0.13,0.99,0.37c0.2,0.25,0.31,0.58,0.31,1
		c0,0.17-0.02,0.34-0.06,0.5c-0.04,0.17-0.08,0.31-0.13,0.43l0.03,0.03c0.49-0.75,1-1.33,1.53-1.73c0.53-0.41,1.08-0.61,1.65-0.61
		c0.45,0,0.78,0.13,0.99,0.37s0.31,0.58,0.31,1c0,0.18-0.03,0.42-0.1,0.73c-0.07,0.31-0.15,0.64-0.26,1
		c-0.1,0.36-0.21,0.73-0.32,1.11s-0.22,0.73-0.32,1.06c-0.1,0.33-0.19,0.61-0.25,0.85s-0.1,0.39-0.1,0.46c0,0.14,0.03,0.22,0.1,0.26
		s0.13,0.06,0.19,0.06c0.11,0,0.25-0.08,0.4-0.25c0.15-0.16,0.38-0.44,0.69-0.84l0.32,0.29c-0.33,0.45-0.63,0.82-0.89,1.11
		c-0.27,0.29-0.51,0.52-0.74,0.69c-0.23,0.17-0.45,0.29-0.65,0.35c-0.21,0.06-0.42,0.09-0.64,0.09c-0.28,0-0.53-0.11-0.75-0.32
		c-0.22-0.22-0.32-0.52-0.32-0.92c0-0.18,0.03-0.42,0.1-0.72c0.07-0.3,0.15-0.63,0.25-0.99c0.1-0.36,0.21-0.74,0.32-1.12
		c0.11-0.39,0.22-0.74,0.32-1.07s0.19-0.61,0.25-0.86c0.07-0.24,0.1-0.41,0.1-0.48c0-0.16-0.03-0.29-0.08-0.39
		c-0.06-0.1-0.18-0.15-0.36-0.15c-0.06,0-0.18,0.06-0.38,0.18c-0.2,0.12-0.42,0.33-0.67,0.62c-0.25,0.29-0.51,0.7-0.77,1.21
		c-0.27,0.51-0.5,1.16-0.71,1.96l-0.71,2.86h-2.33L63.03,40c0.03-0.11,0.06-0.22,0.09-0.32c0.03-0.1,0.04-0.2,0.04-0.29
		c0-0.13-0.04-0.25-0.12-0.37c-0.08-0.12-0.19-0.18-0.32-0.18c-0.06,0-0.18,0.06-0.38,0.18c-0.2,0.12-0.42,0.33-0.67,0.62
		s-0.51,0.7-0.77,1.21s-0.5,1.16-0.71,1.96l-0.71,2.86h-2.35L58.69,40c0.01-0.03,0.03-0.09,0.05-0.18c0.02-0.08,0.04-0.18,0.07-0.27
		c0.02-0.1,0.04-0.19,0.06-0.28s0.03-0.15,0.03-0.19c0-0.23-0.06-0.38-0.17-0.47s-0.4-0.13-0.85-0.13L57.96,38.03z"/>
	<path class="st2" d="M71.75,43.02c0-0.71,0.14-1.4,0.43-2.07c0.28-0.66,0.67-1.25,1.16-1.76s1.06-0.92,1.71-1.22
		c0.65-0.31,1.35-0.46,2.1-0.46c0.39,0,0.75,0.05,1.1,0.16c0.35,0.11,0.65,0.28,0.91,0.5s0.47,0.52,0.62,0.88
		c0.15,0.36,0.23,0.79,0.23,1.28c0,0.66-0.15,1.32-0.46,1.98c-0.31,0.66-0.71,1.26-1.21,1.78c-0.5,0.53-1.07,0.96-1.73,1.28
		c-0.65,0.33-1.32,0.49-2,0.49c-0.34,0-0.68-0.05-1.02-0.14c-0.34-0.09-0.65-0.25-0.92-0.47c-0.27-0.22-0.49-0.51-0.66-0.88
		C71.83,44.04,71.75,43.58,71.75,43.02z M73.96,44.16c0,0.4,0.06,0.69,0.17,0.88c0.11,0.19,0.33,0.29,0.66,0.29
		c0.27,0,0.53-0.12,0.78-0.35c0.25-0.23,0.48-0.53,0.7-0.9c0.21-0.37,0.41-0.78,0.59-1.22c0.18-0.45,0.33-0.89,0.45-1.32
		s0.22-0.83,0.29-1.2c0.07-0.37,0.1-0.65,0.1-0.86c0-0.46-0.07-0.82-0.2-1.06c-0.13-0.24-0.38-0.37-0.74-0.37
		c-0.28,0-0.55,0.12-0.79,0.37c-0.24,0.24-0.47,0.56-0.68,0.94c-0.21,0.38-0.4,0.8-0.56,1.27c-0.16,0.47-0.3,0.93-0.42,1.39
		c-0.11,0.45-0.2,0.87-0.26,1.26C73.99,43.67,73.96,43.96,73.96,44.16z"/>
	<path class="st2" d="M81.2,42.99c0-0.71,0.14-1.4,0.43-2.06c0.28-0.66,0.65-1.24,1.1-1.75s0.95-0.92,1.5-1.22
		c0.56-0.3,1.1-0.45,1.65-0.45c0.35,0,0.68,0.07,0.98,0.21c0.3,0.14,0.52,0.37,0.67,0.69h0.03c-0.05-0.69-0.17-1.3-0.37-1.84
		c-0.2-0.53-0.46-0.99-0.77-1.38c-0.31-0.38-0.67-0.71-1.08-0.96c-0.41-0.25-0.84-0.46-1.31-0.62l0.24-0.48
		c1.01,0.26,1.85,0.62,2.52,1.06c0.67,0.45,1.2,0.96,1.6,1.54c0.4,0.58,0.67,1.2,0.83,1.86c0.16,0.66,0.24,1.33,0.24,2.01
		c0,0.71-0.12,1.44-0.37,2.18c-0.25,0.74-0.6,1.41-1.06,2.01c-0.46,0.61-1.01,1.1-1.67,1.49c-0.65,0.38-1.39,0.58-2.2,0.58
		c-0.37,0-0.74-0.05-1.09-0.14c-0.35-0.1-0.67-0.26-0.94-0.48s-0.5-0.52-0.66-0.89S81.2,43.53,81.2,42.99z M83.41,44.16
		c0,0.4,0.06,0.69,0.17,0.88c0.11,0.19,0.33,0.29,0.66,0.29c0.27,0,0.53-0.12,0.78-0.35c0.25-0.23,0.48-0.53,0.7-0.9
		c0.21-0.37,0.41-0.78,0.59-1.22c0.18-0.45,0.33-0.89,0.45-1.32s0.22-0.83,0.29-1.2c0.07-0.37,0.1-0.65,0.1-0.86
		c0-0.46-0.07-0.82-0.2-1.06c-0.13-0.24-0.38-0.37-0.74-0.37c-0.28,0-0.55,0.12-0.79,0.37c-0.24,0.24-0.47,0.56-0.68,0.94
		c-0.21,0.38-0.4,0.8-0.56,1.27c-0.16,0.47-0.3,0.93-0.42,1.39c-0.11,0.45-0.2,0.87-0.26,1.26C83.44,43.67,83.41,43.96,83.41,44.16z
		"/>
	<path class="st2" d="M91.37,37.98c0.27,0,0.57-0.01,0.88-0.02c0.32-0.01,0.63-0.03,0.95-0.07c0.32-0.03,0.62-0.08,0.9-0.14
		s0.53-0.14,0.75-0.23l0.17,0.22l-1.85,6.29c-0.02,0.09-0.03,0.16-0.03,0.2c0,0.15,0.06,0.22,0.17,0.22c0.1,0,0.2-0.04,0.31-0.12
		c0.1-0.08,0.2-0.17,0.3-0.29c0.1-0.11,0.19-0.23,0.27-0.36s0.16-0.23,0.23-0.32l0.36,0.22c-0.17,0.26-0.35,0.53-0.54,0.8
		c-0.19,0.27-0.41,0.52-0.65,0.74c-0.24,0.22-0.5,0.4-0.79,0.54s-0.6,0.21-0.94,0.21c-0.32,0-0.56-0.09-0.74-0.26
		s-0.26-0.46-0.26-0.86c0-0.33,0.08-0.78,0.24-1.36l1.04-3.62c0.06-0.16,0.1-0.33,0.13-0.52c0.03-0.19,0.04-0.33,0.04-0.42
		c0-0.19-0.07-0.3-0.22-0.32s-0.41-0.05-0.78-0.08L91.37,37.98z M93.07,35.24c0-0.36,0.13-0.67,0.38-0.93
		c0.25-0.25,0.56-0.38,0.93-0.38s0.67,0.13,0.94,0.38c0.26,0.26,0.39,0.56,0.39,0.93c0,0.36-0.13,0.67-0.39,0.94
		s-0.57,0.39-0.94,0.39s-0.67-0.13-0.93-0.39C93.2,35.91,93.07,35.6,93.07,35.24z"/>
	<path class="st2" d="M101.41,38.03c0.27,0,0.56-0.01,0.88-0.04c0.31-0.03,0.61-0.06,0.9-0.1c0.29-0.04,0.56-0.09,0.81-0.15
		c0.25-0.06,0.45-0.13,0.61-0.21l0.29,0.2c-0.13,0.34-0.24,0.73-0.35,1.16c-0.11,0.43-0.21,0.84-0.31,1.24l0.03,0.03
		c0.5-0.92,1.04-1.59,1.62-2.01c0.58-0.42,1.16-0.63,1.73-0.63c0.45,0,0.78,0.13,0.99,0.37c0.2,0.25,0.31,0.58,0.31,1
		c0,0.17-0.02,0.34-0.06,0.5c-0.04,0.17-0.08,0.31-0.13,0.43l0.03,0.03c0.49-0.75,1-1.33,1.53-1.73c0.53-0.41,1.08-0.61,1.65-0.61
		c0.45,0,0.78,0.13,0.99,0.37s0.31,0.58,0.31,1c0,0.18-0.03,0.42-0.1,0.73c-0.07,0.31-0.15,0.64-0.26,1
		c-0.1,0.36-0.21,0.73-0.32,1.11s-0.22,0.73-0.32,1.06c-0.1,0.33-0.19,0.61-0.25,0.85s-0.1,0.39-0.1,0.46c0,0.14,0.03,0.22,0.1,0.26
		s0.13,0.06,0.19,0.06c0.11,0,0.25-0.08,0.4-0.25c0.15-0.16,0.38-0.44,0.69-0.84l0.32,0.29c-0.33,0.45-0.63,0.82-0.89,1.11
		c-0.27,0.29-0.51,0.52-0.74,0.69c-0.23,0.17-0.45,0.29-0.65,0.35c-0.21,0.06-0.42,0.09-0.64,0.09c-0.28,0-0.53-0.11-0.75-0.32
		c-0.22-0.22-0.32-0.52-0.32-0.92c0-0.18,0.03-0.42,0.1-0.72c0.07-0.3,0.15-0.63,0.25-0.99c0.1-0.36,0.21-0.74,0.32-1.12
		c0.11-0.39,0.22-0.74,0.32-1.07s0.19-0.61,0.25-0.86c0.07-0.24,0.1-0.41,0.1-0.48c0-0.16-0.03-0.29-0.08-0.39
		c-0.06-0.1-0.18-0.15-0.36-0.15c-0.06,0-0.18,0.06-0.38,0.18c-0.2,0.12-0.42,0.33-0.67,0.62c-0.25,0.29-0.51,0.7-0.77,1.21
		c-0.27,0.51-0.5,1.16-0.71,1.96l-0.71,2.86h-2.33l1.56-5.66c0.03-0.11,0.06-0.22,0.09-0.32c0.03-0.1,0.04-0.2,0.04-0.29
		c0-0.13-0.04-0.25-0.12-0.37c-0.08-0.12-0.19-0.18-0.32-0.18c-0.06,0-0.18,0.06-0.38,0.18c-0.2,0.12-0.42,0.33-0.67,0.62
		s-0.51,0.7-0.77,1.21s-0.5,1.16-0.71,1.96l-0.71,2.86h-2.35l1.56-5.66c0.01-0.03,0.03-0.09,0.05-0.18
		c0.02-0.08,0.04-0.18,0.07-0.27c0.02-0.1,0.04-0.19,0.06-0.28s0.03-0.15,0.03-0.19c0-0.23-0.06-0.38-0.17-0.47s-0.4-0.13-0.85-0.13
		L101.41,38.03z"/>
	<path class="st2" d="M115.2,43.02c0-0.71,0.14-1.4,0.43-2.07c0.28-0.66,0.67-1.25,1.16-1.76s1.06-0.92,1.71-1.22
		c0.65-0.31,1.35-0.46,2.1-0.46c0.39,0,0.75,0.05,1.1,0.16c0.35,0.11,0.65,0.28,0.91,0.5s0.47,0.52,0.62,0.88
		c0.15,0.36,0.23,0.79,0.23,1.28c0,0.66-0.15,1.32-0.46,1.98c-0.31,0.66-0.71,1.26-1.21,1.78c-0.5,0.53-1.07,0.96-1.73,1.28
		c-0.65,0.33-1.32,0.49-2,0.49c-0.34,0-0.68-0.05-1.02-0.14c-0.34-0.09-0.65-0.25-0.92-0.47c-0.27-0.22-0.49-0.51-0.66-0.88
		C115.29,44.04,115.2,43.58,115.2,43.02z M117.41,44.16c0,0.4,0.06,0.69,0.17,0.88c0.11,0.19,0.33,0.29,0.66,0.29
		c0.27,0,0.53-0.12,0.78-0.35c0.25-0.23,0.48-0.53,0.7-0.9c0.21-0.37,0.41-0.78,0.59-1.22c0.18-0.45,0.33-0.89,0.45-1.32
		s0.22-0.83,0.29-1.2c0.07-0.37,0.1-0.65,0.1-0.86c0-0.46-0.07-0.82-0.2-1.06c-0.13-0.24-0.38-0.37-0.74-0.37
		c-0.28,0-0.55,0.12-0.79,0.37c-0.24,0.24-0.47,0.56-0.68,0.94c-0.21,0.38-0.4,0.8-0.56,1.27c-0.16,0.47-0.3,0.93-0.42,1.39
		c-0.11,0.45-0.2,0.87-0.26,1.26C117.44,43.67,117.41,43.96,117.41,44.16z"/>
	<path class="st2" d="M134.22,33.25c-0.16,0.53-0.32,0.96-0.48,1.28c-0.16,0.32-0.33,0.58-0.5,0.76c-0.18,0.18-0.37,0.3-0.57,0.36
		c-0.2,0.06-0.43,0.08-0.66,0.08c-0.36,0-0.7-0.03-1-0.08c-0.31-0.05-0.64-0.08-1-0.08c-0.49,0-0.93,0.13-1.34,0.39
		s-0.77,0.59-1.09,0.99c-0.32,0.4-0.59,0.83-0.82,1.29c-0.23,0.46-0.4,0.9-0.53,1.31l0.03,0.03c0.36-0.65,0.87-1.15,1.52-1.52
		c0.65-0.37,1.37-0.55,2.17-0.55c0.39,0,0.75,0.05,1.1,0.16c0.35,0.11,0.65,0.28,0.91,0.5s0.47,0.52,0.62,0.88
		c0.15,0.36,0.23,0.79,0.23,1.28c0,0.66-0.15,1.32-0.46,1.98c-0.31,0.66-0.71,1.26-1.21,1.78c-0.5,0.53-1.07,0.96-1.73,1.28
		c-0.65,0.33-1.32,0.49-2,0.49c-0.82,0-1.46-0.25-1.92-0.76s-0.7-1.31-0.7-2.41c0-0.5,0.08-1.06,0.23-1.69
		c0.15-0.63,0.37-1.27,0.65-1.93c0.28-0.66,0.61-1.3,0.99-1.93s0.8-1.19,1.27-1.67c0.46-0.49,0.96-0.88,1.5-1.18
		c0.53-0.3,1.08-0.45,1.65-0.45c0.14,0,0.27,0,0.4,0.01s0.26,0.01,0.4,0.03c0.14,0.01,0.27,0.02,0.41,0.03
		c0.14,0.01,0.27,0.01,0.39,0.01c0.23,0,0.44-0.05,0.65-0.15c0.2-0.1,0.37-0.31,0.49-0.63L134.22,33.25z M126.91,44.33
		c0,0.27,0.06,0.5,0.18,0.7c0.12,0.19,0.29,0.29,0.52,0.31c0.33,0,0.63-0.14,0.9-0.41c0.27-0.27,0.52-0.62,0.73-1.04
		c0.21-0.42,0.4-0.88,0.56-1.37c0.16-0.49,0.29-0.95,0.4-1.38c0.11-0.43,0.19-0.8,0.24-1.11c0.05-0.31,0.08-0.49,0.08-0.54
		c0-0.54-0.06-0.92-0.17-1.12s-0.32-0.31-0.61-0.31c-0.33,0-0.63,0.13-0.89,0.4c-0.27,0.27-0.5,0.61-0.71,1.03
		c-0.21,0.42-0.39,0.88-0.54,1.38c-0.15,0.5-0.28,0.98-0.37,1.45s-0.17,0.88-0.22,1.25C126.94,43.93,126.91,44.19,126.91,44.33z"/>
	<path class="st2" d="M134.82,37.98c0.27,0,0.57-0.01,0.88-0.02c0.32-0.01,0.63-0.03,0.95-0.07c0.32-0.03,0.62-0.08,0.9-0.14
		s0.53-0.14,0.75-0.23l0.17,0.22l-1.85,6.29c-0.02,0.09-0.03,0.16-0.03,0.2c0,0.15,0.06,0.22,0.17,0.22c0.1,0,0.2-0.04,0.31-0.12
		c0.1-0.08,0.2-0.17,0.3-0.29c0.1-0.11,0.19-0.23,0.27-0.36s0.16-0.23,0.23-0.32l0.36,0.22c-0.17,0.26-0.35,0.53-0.54,0.8
		c-0.19,0.27-0.41,0.52-0.65,0.74c-0.24,0.22-0.5,0.4-0.79,0.54s-0.6,0.21-0.94,0.21c-0.32,0-0.56-0.09-0.74-0.26
		s-0.26-0.46-0.26-0.86c0-0.33,0.08-0.78,0.24-1.36l1.04-3.62c0.06-0.16,0.1-0.33,0.13-0.52c0.03-0.19,0.04-0.33,0.04-0.42
		c0-0.19-0.07-0.3-0.22-0.32s-0.41-0.05-0.78-0.08L134.82,37.98z M136.52,35.24c0-0.36,0.13-0.67,0.38-0.93
		c0.25-0.25,0.56-0.38,0.93-0.38s0.67,0.13,0.94,0.38c0.26,0.26,0.39,0.56,0.39,0.93c0,0.36-0.13,0.67-0.39,0.94
		s-0.57,0.39-0.94,0.39s-0.67-0.13-0.93-0.39C136.65,35.91,136.52,35.6,136.52,35.24z"/>
	<path class="st2" d="M144.49,42.99c0-0.71,0.14-1.4,0.43-2.06c0.28-0.66,0.65-1.24,1.1-1.75s0.95-0.92,1.5-1.22
		c0.56-0.3,1.1-0.45,1.65-0.45c0.35,0,0.68,0.07,0.98,0.21c0.3,0.14,0.52,0.37,0.67,0.69h0.03c-0.05-0.69-0.17-1.3-0.37-1.84
		c-0.2-0.53-0.46-0.99-0.77-1.38c-0.31-0.38-0.67-0.71-1.08-0.96c-0.41-0.25-0.84-0.46-1.31-0.62l0.24-0.48
		c1.01,0.26,1.85,0.62,2.52,1.06c0.67,0.45,1.2,0.96,1.6,1.54c0.4,0.58,0.67,1.2,0.83,1.86c0.16,0.66,0.24,1.33,0.24,2.01
		c0,0.71-0.12,1.44-0.37,2.18c-0.25,0.74-0.6,1.41-1.06,2.01c-0.46,0.61-1.01,1.1-1.67,1.49c-0.65,0.38-1.39,0.58-2.2,0.58
		c-0.37,0-0.74-0.05-1.09-0.14c-0.35-0.1-0.67-0.26-0.94-0.48s-0.5-0.52-0.66-0.89S144.49,43.53,144.49,42.99z M146.7,44.16
		c0,0.4,0.06,0.69,0.17,0.88c0.11,0.19,0.33,0.29,0.66,0.29c0.27,0,0.53-0.12,0.78-0.35c0.25-0.23,0.48-0.53,0.7-0.9
		c0.21-0.37,0.41-0.78,0.59-1.22c0.18-0.45,0.33-0.89,0.45-1.32s0.22-0.83,0.29-1.2c0.07-0.37,0.1-0.65,0.1-0.86
		c0-0.46-0.07-0.82-0.2-1.06c-0.13-0.24-0.38-0.37-0.74-0.37c-0.28,0-0.55,0.12-0.79,0.37c-0.24,0.24-0.47,0.56-0.68,0.94
		c-0.21,0.38-0.4,0.8-0.56,1.27c-0.16,0.47-0.3,0.93-0.42,1.39c-0.11,0.45-0.2,0.87-0.26,1.26C146.73,43.67,146.7,43.96,146.7,44.16
		z"/>
	<path class="st2" d="M153.94,43.02c0-0.71,0.14-1.4,0.43-2.07c0.28-0.66,0.67-1.25,1.16-1.76s1.06-0.92,1.71-1.22
		c0.65-0.31,1.35-0.46,2.1-0.46c0.39,0,0.75,0.05,1.1,0.16c0.35,0.11,0.65,0.28,0.91,0.5s0.47,0.52,0.62,0.88
		c0.15,0.36,0.23,0.79,0.23,1.28c0,0.66-0.15,1.32-0.46,1.98c-0.31,0.66-0.71,1.26-1.21,1.78c-0.5,0.53-1.07,0.96-1.73,1.28
		c-0.65,0.33-1.32,0.49-2,0.49c-0.34,0-0.68-0.05-1.02-0.14c-0.34-0.09-0.65-0.25-0.92-0.47c-0.27-0.22-0.49-0.51-0.66-0.88
		C154.03,44.04,153.94,43.58,153.94,43.02z M156.15,44.16c0,0.4,0.06,0.69,0.17,0.88c0.11,0.19,0.33,0.29,0.66,0.29
		c0.27,0,0.53-0.12,0.78-0.35c0.25-0.23,0.48-0.53,0.7-0.9c0.21-0.37,0.41-0.78,0.59-1.22c0.18-0.45,0.33-0.89,0.45-1.32
		s0.22-0.83,0.29-1.2c0.07-0.37,0.1-0.65,0.1-0.86c0-0.46-0.07-0.82-0.2-1.06c-0.13-0.24-0.38-0.37-0.74-0.37
		c-0.28,0-0.55,0.12-0.79,0.37c-0.24,0.24-0.47,0.56-0.68,0.94c-0.21,0.38-0.4,0.8-0.56,1.27c-0.16,0.47-0.3,0.93-0.42,1.39
		c-0.11,0.45-0.2,0.87-0.26,1.26C156.19,43.67,156.15,43.96,156.15,44.16z"/>
	<path class="st2" d="M174.19,37.74h2.36l-1.68,5.95c-0.05,0.16-0.07,0.27-0.08,0.33c-0.01,0.06-0.02,0.14-0.02,0.23
		c0,0.07,0.03,0.12,0.08,0.15c0.06,0.03,0.12,0.05,0.19,0.05c0.07,0,0.14-0.03,0.23-0.1c0.08-0.07,0.18-0.16,0.27-0.26
		c0.1-0.11,0.19-0.23,0.29-0.36c0.1-0.13,0.18-0.26,0.25-0.4l0.32,0.25c-0.1,0.19-0.24,0.42-0.42,0.69
		c-0.18,0.27-0.39,0.52-0.64,0.76s-0.52,0.44-0.82,0.6c-0.29,0.16-0.61,0.25-0.95,0.25c-0.37,0-0.65-0.11-0.83-0.34
		s-0.27-0.51-0.27-0.85c0-0.29,0.05-0.65,0.14-1.08c0.09-0.43,0.24-1.01,0.44-1.74h-2.01l-1.04,3.79h-2.38l1.65-5.9
		c0.06-0.23,0.1-0.39,0.12-0.49c0.02-0.1,0.03-0.19,0.03-0.27c0-0.21-0.08-0.35-0.24-0.42s-0.39-0.09-0.68-0.09l0.08-0.46
		c0.77-0.04,1.41-0.09,1.93-0.14c0.52-0.05,1.01-0.14,1.49-0.26l0.15,0.12l-0.99,3.59h2.02L174.19,37.74z"/>
	<path class="st2" d="M183.8,37.74h2.16l-1.72,5.83c-0.02,0.09-0.05,0.17-0.07,0.25c-0.02,0.07-0.03,0.14-0.03,0.2
		c0,0.16,0.03,0.27,0.1,0.33c0.07,0.06,0.15,0.09,0.24,0.09c0.19,0,0.37-0.11,0.54-0.32l0.51-0.7l0.36,0.24
		c-0.48,0.75-0.96,1.31-1.44,1.67s-0.94,0.55-1.34,0.55c-0.4,0-0.67-0.11-0.83-0.34c-0.16-0.23-0.24-0.58-0.24-1.05
		c0-0.19,0.02-0.41,0.05-0.65l-0.03-0.03c-0.17,0.26-0.35,0.51-0.54,0.76c-0.19,0.24-0.41,0.46-0.64,0.66
		c-0.23,0.2-0.49,0.36-0.77,0.48s-0.59,0.18-0.94,0.18c-0.32,0-0.59-0.06-0.82-0.17c-0.23-0.11-0.43-0.27-0.58-0.46
		c-0.15-0.19-0.27-0.42-0.34-0.68c-0.07-0.26-0.11-0.54-0.11-0.83c0-0.35,0.06-0.75,0.18-1.2s0.29-0.9,0.51-1.37
		c0.22-0.46,0.48-0.92,0.77-1.35c0.29-0.44,0.62-0.83,0.97-1.17c0.35-0.34,0.72-0.61,1.1-0.82s0.78-0.31,1.19-0.31
		c0.34,0,0.65,0.08,0.92,0.25s0.49,0.41,0.65,0.71L183.8,37.74z M183.22,39.13c0-0.24-0.05-0.44-0.15-0.61s-0.29-0.25-0.58-0.25
		c-0.24,0-0.48,0.1-0.71,0.31s-0.46,0.48-0.68,0.82c-0.22,0.33-0.41,0.71-0.59,1.11c-0.18,0.41-0.34,0.81-0.48,1.2
		c-0.14,0.39-0.24,0.75-0.31,1.08c-0.07,0.33-0.11,0.58-0.11,0.77c0,0.23,0.06,0.45,0.19,0.67c0.12,0.22,0.3,0.33,0.53,0.33
		c0.28,0,0.56-0.13,0.82-0.38s0.5-0.58,0.71-0.96c0.22-0.38,0.41-0.8,0.58-1.26c0.17-0.45,0.31-0.88,0.43-1.28s0.21-0.75,0.27-1.03
		C183.19,39.36,183.22,39.19,183.22,39.13z"/>
	<path class="st2" d="M193.44,43.67c-0.2,0.31-0.43,0.59-0.69,0.86c-0.25,0.27-0.53,0.5-0.83,0.7c-0.3,0.2-0.62,0.36-0.96,0.48
		s-0.7,0.18-1.09,0.18c-0.9,0-1.59-0.24-2.09-0.72s-0.75-1.16-0.75-2.03c0-0.83,0.16-1.59,0.48-2.28s0.72-1.28,1.21-1.78
		c0.49-0.49,1.03-0.88,1.62-1.15c0.59-0.27,1.15-0.41,1.68-0.41c0.32,0,0.61,0.03,0.88,0.1c0.27,0.07,0.51,0.17,0.71,0.3
		c0.2,0.13,0.35,0.29,0.47,0.49s0.17,0.43,0.17,0.71c0,0.32-0.12,0.6-0.35,0.84c-0.23,0.24-0.53,0.37-0.89,0.37
		c-0.32,0-0.57-0.08-0.77-0.24c-0.19-0.16-0.29-0.38-0.29-0.66c0-0.11,0.02-0.22,0.06-0.32c0.04-0.1,0.08-0.18,0.13-0.25
		c0.05-0.07,0.09-0.14,0.13-0.21c0.04-0.07,0.06-0.14,0.06-0.2c0-0.13-0.05-0.22-0.16-0.28c-0.11-0.06-0.21-0.09-0.31-0.09
		c-0.22,0-0.43,0.09-0.64,0.27c-0.21,0.18-0.41,0.42-0.6,0.71c-0.19,0.29-0.36,0.63-0.52,1s-0.29,0.75-0.41,1.12
		c-0.11,0.37-0.2,0.74-0.26,1.09c-0.06,0.35-0.09,0.65-0.09,0.9c0,0.43,0.12,0.79,0.37,1.09c0.24,0.29,0.59,0.44,1.03,0.44
		c0.51,0,0.94-0.13,1.3-0.37s0.68-0.57,0.98-0.95L193.44,43.67z"/>
	<path class="st2" d="M195,44.57c0-0.38,0.14-0.71,0.41-0.99c0.27-0.27,0.6-0.41,0.99-0.41c0.39,0,0.71,0.14,0.99,0.41
		c0.27,0.27,0.41,0.6,0.41,0.99c0,0.39-0.14,0.71-0.41,0.99c-0.27,0.27-0.6,0.41-0.99,0.41c-0.39,0-0.71-0.14-0.99-0.41
		C195.14,45.29,195,44.96,195,44.57z M196.87,41.87c0.09-0.27,0.17-0.53,0.25-0.77c0.07-0.24,0.14-0.54,0.19-0.88
		c0.05-0.34,0.09-0.76,0.12-1.27s0.04-1.15,0.04-1.93c0-0.35,0.01-0.73,0.03-1.13c0.02-0.4,0.08-0.77,0.2-1.1
		c0.11-0.33,0.29-0.61,0.53-0.83c0.24-0.22,0.58-0.33,1.02-0.33c0.16,0,0.32,0.03,0.48,0.08c0.16,0.05,0.31,0.13,0.45,0.23
		c0.14,0.1,0.25,0.23,0.33,0.39c0.08,0.16,0.13,0.34,0.13,0.54c0,0.36-0.06,0.69-0.18,0.99c-0.12,0.29-0.27,0.59-0.46,0.88
		s-0.4,0.6-0.64,0.92c-0.24,0.32-0.48,0.68-0.72,1.09s-0.48,0.88-0.71,1.4c-0.23,0.53-0.42,1.14-0.58,1.84L196.87,41.87z"/>
</g>
<image style="overflow:visible;" width="512" height="512" xlink:href="book_PNG2114.png"  transform="matrix(0.1172 0 0 0.1172 354.6187 -1.7021)">
</image>
<g>
</g>
<g>
</g>
<g>
</g>
<g>
</g>
<g>
</g>
<g>
</g>
<g>
</g>
<g>
</g>
<g>
</g>
<g>
</g>
<g>
</g>
<g>
</g>
<g>
</g>
<g>
</g>
<g>
</g>
</svg>
