<svg version="1.1" id="Слой_1" xmlns="http://www.w3.org/2000/svg" x="0" y="0" viewBox="0 0 512 512" xml:space="preserve"><style>.st1{fill:#f0c419}.st2{fill:#ecf0f1}</style><g id="Page-1"><g id="_x30_12---Card"><path id="Rectangle-path" d="M88.3 119h335.4c29.3 0 53 23.7 53 53v185.4c0 29.3-23.7 53-53 53H88.3c-29.3 0-53-23.7-53-53V171.9c0-29.2 23.7-52.9 53-52.9z" fill="#0b2168"/><path id="Shape_2_" class="st1" d="M167.7 180.8v17.7h-53v-35.3H150c9.8-.1 17.7 7.8 17.7 17.6z"/><path id="Shape_3_" class="st1" d="M114.8 163.1v35.3H79.4v-17.7c0-9.7 7.9-17.6 17.7-17.7l17.7.1z"/><path id="Shape_4_" class="st1" d="M114.8 198.4v35.3H97.1c-9.7 0-17.6-7.9-17.7-17.7v-17.7l35.4.1z"/><path id="Shape_5_" class="st1" d="M167.7 198.4v17.7c0 9.7-7.9 17.6-17.7 17.7h-35.3v-35.3l53-.1z"/><path id="Shape_6_" class="st2" d="M150.1 313.2h-53c-4.9 0-8.8-4-8.8-8.8s4-8.8 8.8-8.8h53c4.9 0 8.8 4 8.8 8.8s-4 8.8-8.8 8.8z"/><path id="Shape_7_" class="st2" d="M238.3 313.2h-53c-4.9 0-8.8-4-8.8-8.8s4-8.8 8.8-8.8h53c4.9 0 8.8 4 8.8 8.8s-3.9 8.8-8.8 8.8z"/><path id="Shape_8_" class="st2" d="M326.6 313.2h-53c-4.9 0-8.8-4-8.8-8.8s4-8.8 8.8-8.8h53c4.9 0 8.8 4 8.8 8.8s-3.9 8.8-8.8 8.8z"/><path id="Shape_9_" class="st2" d="M414.9 313.2h-53c-4.9 0-8.8-4-8.8-8.8s4-8.8 8.8-8.8h53c4.9 0 8.8 4 8.8 8.8s-3.9 8.8-8.8 8.8z"/><path id="Shape_10_" class="st2" d="M114.8 366.1H97.1c-4.9 0-8.8-4-8.8-8.8s4-8.8 8.8-8.8h17.7c4.9 0 8.8 4 8.8 8.8s-4 8.8-8.8 8.8z"/><path id="Shape_11_" class="st2" d="M176.6 366.1h-17.7c-4.9 0-8.8-4-8.8-8.8s4-8.8 8.8-8.8h17.7c4.9 0 8.8 4 8.8 8.8s-4 8.8-8.8 8.8z"/></g></g></svg>