<svg xmlns="http://www.w3.org/2000/svg" height="171.291" width="225.289"><defs><clipPath id="a" clipPathUnits="userSpaceOnUse"><path d="M0 128.468h168.967V0H0z"/></clipPath></defs><g clip-path="url(#a)" transform="matrix(1.33333 0 0 -1.33333 0 171.29)"><path d="M105.919 64.167a3.932 3.932 0 100 7.861 3.932 3.932 0 000-7.861m-9.22 0a3.93 3.93 0 100 7.863 3.93 3.93 0 100-7.863m-9.222 0a3.932 3.932 0 10.002 7.862 3.932 3.932 0 00-.002-7.862m.642 48.389V80.094l-.005-.003a2.564 2.564 0 00-2.567-2.541h-3.872a.349.349 0 01-.348-.35V49.999a32.508 32.508 0 012.907-.135c17.379 0 31.465 14.088 31.465 31.466 0 16.061-12.035 29.311-27.58 31.226" fill="#00a768"/><path d="M78.204 86.849a3.932 3.932 0 100 7.864 3.932 3.932 0 000-7.864m6.03 25.945c-17.375 0-31.463-14.088-31.463-31.463 0-15.082 10.612-27.686 24.777-30.753v28.235l.002.003a2.566 2.566 0 002.468 2.51l.003.003h3.968c.186 0 .338.147.349.33l.002 31.129zM149.36 31.348v-5.935h-7.967v5.935h-3.932V15.674h3.932v6.336h7.968v-6.336h3.932v15.674zM77.97 22.12l2.42 5.693a.338.338 0 00.32.223h.002a.339.339 0 00.32-.223l2.419-5.693zm5.969 7.482c-.658 1.423-1.966 2.12-3.227 2.12h-.002c-1.26 0-2.57-.697-3.225-2.12L71.06 15.674h4.179l1.4 3.308h8.144l1.4-3.308h4.18zM37.19 34.188c-1.84 0-3.014-.98-3.885-2.954L28.18 19.437l-5.122 11.797c-.87 1.974-2.046 2.954-3.885 2.954-1.721 0-3.5-1.233-3.5-3.91V15.673h3.924v14.205l5.155-11.698c.692-1.632 1.806-2.658 3.428-2.66h.002c1.62.002 2.735 1.028 3.427 2.66l5.156 11.698V15.673h3.924v14.605c0 2.677-1.78 3.91-3.5 3.91M47.57 18.985a.338.338 0 00-.336.338v2.797h9.793v3.196h-9.793V27.7c0 .181.147.336.336.336h9.687v3.311h-11.62c-1.36 0-2.337-1.134-2.337-2.335V18.01c0-1.2.977-2.336 2.338-2.336h11.619v3.312zM63.921 15.674V27.7c0 .182.15.336.337.336h9.688v3.312H62.327c-1.36 0-2.339-1.135-2.339-2.335v-13.34zM126.492 18.765h-1.256c-3.278 0-4.543 1.477-4.543 4.759v.015c0 3.183 1.112 4.748 4.543 4.748h1.256c3.333 0 4.541-1.565 4.541-4.748l.001-.015c0-3.282-1.29-4.76-4.542-4.76m8.37 4.775c-.003 5.488-2.362 8.049-8.31 8.049h-1.376c-5.95 0-8.307-2.561-8.31-8.05v-.007c0-5.405 2.41-8.01 8.344-8.01h1.306c5.934 0 8.345 2.605 8.345 8.01zM109.98 23.54c-.585-1.558-1.542-2.549-4.202-2.549h-1.8v9.521h2.418c2.265 0 3.809-1.414 3.809-4.758 0-.863.002-1.618-.224-2.215m-9.921-2.548h-1.801c-2.66 0-3.616.991-4.201 2.548-.227.597-.225 1.352-.225 2.215 0 3.344 1.545 4.758 3.81 4.758h2.417zm5.848 12.826h-7.779c-5.804 0-8.126-2.936-8.126-8.056 0-.8.048-1.54.164-2.222.613-3.628 2.745-5.856 8.182-5.856h1.71v-2.009h3.92v2.01h1.71c5.436 0 7.568 2.227 8.182 5.855.115.681.163 1.421.163 2.222 0 5.12-2.321 8.056-8.126 8.056" fill="#00a768"/></g></svg>